<mxfile host="app.diagrams.net" agent="Mozilla/5.0 (Windows NT 10.0; Win64; x64) AppleWebKit/537.36 (KHTML, like Gecko) Chrome/131.0.0.0 Safari/537.36" version="24.9.1">
  <diagram name="Page-1" id="f1wMGk_wxyHmaLdVLJDL">
    <mxGraphModel dx="1605" dy="393" grid="1" gridSize="10" guides="1" tooltips="1" connect="1" arrows="1" fold="1" page="1" pageScale="1" pageWidth="850" pageHeight="1100" math="0" shadow="0">
      <root>
        <mxCell id="0" />
        <mxCell id="1" parent="0" />
        <mxCell id="Dd4lVPITV6rcG0dg7MI0-1" value="BATERIA" style="rounded=0;whiteSpace=wrap;html=1;fillColor=#33FF33;" vertex="1" parent="1">
          <mxGeometry x="810" y="220" width="120" height="60" as="geometry" />
        </mxCell>
        <mxCell id="Dd4lVPITV6rcG0dg7MI0-2" value="" style="rounded=0;whiteSpace=wrap;html=1;" vertex="1" parent="1">
          <mxGeometry x="810" y="190" width="30" height="30" as="geometry" />
        </mxCell>
        <mxCell id="Dd4lVPITV6rcG0dg7MI0-3" value="" style="rounded=0;whiteSpace=wrap;html=1;" vertex="1" parent="1">
          <mxGeometry x="900" y="190" width="30" height="30" as="geometry" />
        </mxCell>
        <mxCell id="Dd4lVPITV6rcG0dg7MI0-5" value="" style="endArrow=classic;html=1;rounded=0;entryX=0.5;entryY=0;entryDx=0;entryDy=0;entryPerimeter=0;exitX=0.5;exitY=0;exitDx=0;exitDy=0;" edge="1" parent="1" source="Dd4lVPITV6rcG0dg7MI0-3" target="Dd4lVPITV6rcG0dg7MI0-6">
          <mxGeometry width="50" height="50" relative="1" as="geometry">
            <mxPoint x="700" y="410" as="sourcePoint" />
            <mxPoint x="750" y="360" as="targetPoint" />
            <Array as="points">
              <mxPoint x="915" y="150" />
              <mxPoint x="1003" y="150" />
            </Array>
          </mxGeometry>
        </mxCell>
        <mxCell id="Dd4lVPITV6rcG0dg7MI0-6" value="" style="pointerEvents=1;verticalLabelPosition=bottom;shadow=0;dashed=0;align=center;html=1;verticalAlign=top;shape=mxgraph.electrical.signal_sources.signal_ground;" vertex="1" parent="1">
          <mxGeometry x="980" y="235" width="45" height="30" as="geometry" />
        </mxCell>
        <mxCell id="Dd4lVPITV6rcG0dg7MI0-7" value="&lt;font style=&quot;font-size: 22px;&quot;&gt;PDM&lt;/font&gt;" style="rounded=1;whiteSpace=wrap;html=1;fillColor=#FF6666;" vertex="1" parent="1">
          <mxGeometry x="230" y="190" width="185" height="80" as="geometry" />
        </mxCell>
        <mxCell id="Dd4lVPITV6rcG0dg7MI0-8" value="" style="endArrow=classic;html=1;rounded=0;exitX=0.5;exitY=0;exitDx=0;exitDy=0;entryX=0.639;entryY=-0.016;entryDx=0;entryDy=0;entryPerimeter=0;strokeColor=#FF0000;" edge="1" parent="1" source="Dd4lVPITV6rcG0dg7MI0-2" target="Dd4lVPITV6rcG0dg7MI0-7">
          <mxGeometry width="50" height="50" relative="1" as="geometry">
            <mxPoint x="540" y="280" as="sourcePoint" />
            <mxPoint x="590" y="230" as="targetPoint" />
            <Array as="points">
              <mxPoint x="825" y="80" />
              <mxPoint x="350" y="80" />
            </Array>
          </mxGeometry>
        </mxCell>
        <mxCell id="Dd4lVPITV6rcG0dg7MI0-9" value="AIM EVO 4" style="rounded=1;whiteSpace=wrap;html=1;fillColor=#dae8fc;strokeColor=#6c8ebf;" vertex="1" parent="1">
          <mxGeometry x="760" y="870" width="120" height="60" as="geometry" />
        </mxCell>
        <mxCell id="Dd4lVPITV6rcG0dg7MI0-10" value="&lt;font style=&quot;font-size: 22px;&quot;&gt;MS3 PRO&lt;/font&gt;" style="rounded=1;whiteSpace=wrap;html=1;fillColor=#dae8fc;strokeColor=#6c8ebf;" vertex="1" parent="1">
          <mxGeometry x="208.75" y="840" width="230" height="110" as="geometry" />
        </mxCell>
        <mxCell id="Dd4lVPITV6rcG0dg7MI0-11" value="&lt;font style=&quot;font-size: 32px;&quot;&gt;Cirucular Sensores Vitais&lt;/font&gt;" style="ellipse;whiteSpace=wrap;html=1;fillColor=#CCCCCC;" vertex="1" parent="1">
          <mxGeometry x="90" y="440" width="467.5" height="285" as="geometry" />
        </mxCell>
        <mxCell id="Dd4lVPITV6rcG0dg7MI0-21" value="CKP" style="rounded=0;whiteSpace=wrap;html=1;" vertex="1" parent="1">
          <mxGeometry x="-240" y="300" width="80" height="40" as="geometry" />
        </mxCell>
        <mxCell id="Dd4lVPITV6rcG0dg7MI0-22" value="CLT" style="rounded=0;whiteSpace=wrap;html=1;" vertex="1" parent="1">
          <mxGeometry x="-240" y="360" width="80" height="40" as="geometry" />
        </mxCell>
        <mxCell id="Dd4lVPITV6rcG0dg7MI0-23" value="TRIPLEX" style="rounded=0;whiteSpace=wrap;html=1;" vertex="1" parent="1">
          <mxGeometry x="-240" y="410" width="80" height="60" as="geometry" />
        </mxCell>
        <mxCell id="Dd4lVPITV6rcG0dg7MI0-24" value="FPS" style="rounded=0;whiteSpace=wrap;html=1;" vertex="1" parent="1">
          <mxGeometry x="-240" y="480" width="80" height="40" as="geometry" />
        </mxCell>
        <mxCell id="Dd4lVPITV6rcG0dg7MI0-25" value="OTS" style="rounded=0;whiteSpace=wrap;html=1;" vertex="1" parent="1">
          <mxGeometry x="-240" y="540" width="80" height="40" as="geometry" />
        </mxCell>
        <mxCell id="Dd4lVPITV6rcG0dg7MI0-26" value="OPS" style="rounded=0;whiteSpace=wrap;html=1;" vertex="1" parent="1">
          <mxGeometry x="-240" y="600" width="80" height="40" as="geometry" />
        </mxCell>
        <mxCell id="Dd4lVPITV6rcG0dg7MI0-27" value="PPS" style="rounded=0;whiteSpace=wrap;html=1;" vertex="1" parent="1">
          <mxGeometry x="-240" y="660" width="80" height="40" as="geometry" />
        </mxCell>
        <mxCell id="Dd4lVPITV6rcG0dg7MI0-28" value="Flex" style="rounded=0;whiteSpace=wrap;html=1;" vertex="1" parent="1">
          <mxGeometry x="-240" y="720" width="80" height="40" as="geometry" />
        </mxCell>
        <mxCell id="Dd4lVPITV6rcG0dg7MI0-30" value="MAQ" style="rounded=0;whiteSpace=wrap;html=1;" vertex="1" parent="1">
          <mxGeometry x="-240" y="840" width="80" height="40" as="geometry" />
        </mxCell>
        <mxCell id="Dd4lVPITV6rcG0dg7MI0-31" value="Knock" style="rounded=0;whiteSpace=wrap;html=1;" vertex="1" parent="1">
          <mxGeometry x="-240" y="900" width="80" height="40" as="geometry" />
        </mxCell>
        <mxCell id="Dd4lVPITV6rcG0dg7MI0-33" value="" style="rounded=0;whiteSpace=wrap;html=1;" vertex="1" parent="1">
          <mxGeometry x="680" y="360" width="80" height="40" as="geometry" />
        </mxCell>
        <mxCell id="Dd4lVPITV6rcG0dg7MI0-34" value="" style="rounded=0;whiteSpace=wrap;html=1;" vertex="1" parent="1">
          <mxGeometry x="680" y="420" width="80" height="40" as="geometry" />
        </mxCell>
        <mxCell id="Dd4lVPITV6rcG0dg7MI0-35" value="" style="rounded=0;whiteSpace=wrap;html=1;" vertex="1" parent="1">
          <mxGeometry x="680" y="480" width="80" height="40" as="geometry" />
        </mxCell>
        <mxCell id="Dd4lVPITV6rcG0dg7MI0-36" value="" style="rounded=0;whiteSpace=wrap;html=1;" vertex="1" parent="1">
          <mxGeometry x="680" y="540" width="80" height="40" as="geometry" />
        </mxCell>
        <mxCell id="Dd4lVPITV6rcG0dg7MI0-37" value="" style="rounded=0;whiteSpace=wrap;html=1;" vertex="1" parent="1">
          <mxGeometry x="680" y="600" width="80" height="40" as="geometry" />
        </mxCell>
        <mxCell id="Dd4lVPITV6rcG0dg7MI0-38" value="" style="rounded=0;whiteSpace=wrap;html=1;" vertex="1" parent="1">
          <mxGeometry x="680" y="660" width="80" height="40" as="geometry" />
        </mxCell>
        <mxCell id="Dd4lVPITV6rcG0dg7MI0-39" value="" style="rounded=0;whiteSpace=wrap;html=1;" vertex="1" parent="1">
          <mxGeometry x="680" y="720" width="80" height="40" as="geometry" />
        </mxCell>
        <mxCell id="Dd4lVPITV6rcG0dg7MI0-40" value="" style="endArrow=classic;html=1;rounded=0;entryX=1;entryY=0.25;entryDx=0;entryDy=0;exitX=0.75;exitY=1;exitDx=0;exitDy=0;strokeColor=#FF0000;" edge="1" parent="1" source="Dd4lVPITV6rcG0dg7MI0-7" target="Dd4lVPITV6rcG0dg7MI0-9">
          <mxGeometry width="50" height="50" relative="1" as="geometry">
            <mxPoint x="470" y="580" as="sourcePoint" />
            <mxPoint x="520" y="530" as="targetPoint" />
            <Array as="points">
              <mxPoint x="369" y="300" />
              <mxPoint x="920" y="300" />
              <mxPoint x="920" y="885" />
            </Array>
          </mxGeometry>
        </mxCell>
        <mxCell id="Dd4lVPITV6rcG0dg7MI0-41" value="" style="endArrow=classic;startArrow=classic;html=1;rounded=0;exitX=0;exitY=0.5;exitDx=0;exitDy=0;entryX=0.25;entryY=1;entryDx=0;entryDy=0;strokeWidth=3;strokeColor=#FF33FF;" edge="1" parent="1" source="Dd4lVPITV6rcG0dg7MI0-7" target="Dd4lVPITV6rcG0dg7MI0-9">
          <mxGeometry width="50" height="50" relative="1" as="geometry">
            <mxPoint x="470" y="580" as="sourcePoint" />
            <mxPoint x="520" y="530" as="targetPoint" />
            <Array as="points">
              <mxPoint x="-320" y="230" />
              <mxPoint x="-320" y="980" />
              <mxPoint x="790" y="980" />
            </Array>
          </mxGeometry>
        </mxCell>
        <mxCell id="Dd4lVPITV6rcG0dg7MI0-42" value="" style="endArrow=classic;startArrow=classic;html=1;rounded=0;exitX=0;exitY=0.75;exitDx=0;exitDy=0;entryX=0.5;entryY=1;entryDx=0;entryDy=0;strokeColor=#00CC00;strokeWidth=3;" edge="1" parent="1" source="Dd4lVPITV6rcG0dg7MI0-7" target="Dd4lVPITV6rcG0dg7MI0-9">
          <mxGeometry width="50" height="50" relative="1" as="geometry">
            <mxPoint x="470" y="580" as="sourcePoint" />
            <mxPoint x="520" y="530" as="targetPoint" />
            <Array as="points">
              <mxPoint x="-280" y="250" />
              <mxPoint x="-280" y="1010" />
              <mxPoint x="820" y="1010" />
            </Array>
          </mxGeometry>
        </mxCell>
        <mxCell id="Dd4lVPITV6rcG0dg7MI0-43" value="" style="endArrow=classic;startArrow=classic;html=1;rounded=0;entryX=0.138;entryY=0.98;entryDx=0;entryDy=0;entryPerimeter=0;strokeWidth=2;strokeColor=#FF33FF;" edge="1" parent="1" target="Dd4lVPITV6rcG0dg7MI0-10">
          <mxGeometry width="50" height="50" relative="1" as="geometry">
            <mxPoint x="240" y="980" as="sourcePoint" />
            <mxPoint x="450" y="780" as="targetPoint" />
          </mxGeometry>
        </mxCell>
        <mxCell id="Dd4lVPITV6rcG0dg7MI0-44" value="" style="endArrow=classic;startArrow=classic;html=1;rounded=0;exitX=0.5;exitY=1;exitDx=0;exitDy=0;strokeColor=#00CC00;strokeWidth=2;" edge="1" parent="1" source="Dd4lVPITV6rcG0dg7MI0-10">
          <mxGeometry width="50" height="50" relative="1" as="geometry">
            <mxPoint x="400" y="830" as="sourcePoint" />
            <mxPoint x="324" y="1010" as="targetPoint" />
          </mxGeometry>
        </mxCell>
        <mxCell id="Dd4lVPITV6rcG0dg7MI0-47" value="" style="endArrow=classic;startArrow=classic;html=1;rounded=0;strokeWidth=2;entryX=0;entryY=0.75;entryDx=0;entryDy=0;strokeColor=#00CC00;" edge="1" parent="1">
          <mxGeometry width="50" height="50" relative="1" as="geometry">
            <mxPoint x="-280" y="870" as="sourcePoint" />
            <mxPoint x="-240" y="870" as="targetPoint" />
            <Array as="points" />
          </mxGeometry>
        </mxCell>
        <mxCell id="Dd4lVPITV6rcG0dg7MI0-48" value="" style="endArrow=classic;startArrow=classic;html=1;rounded=0;entryX=0;entryY=0.25;entryDx=0;entryDy=0;strokeWidth=2;strokeColor=#FF33FF;" edge="1" parent="1">
          <mxGeometry width="50" height="50" relative="1" as="geometry">
            <mxPoint x="-320" y="850" as="sourcePoint" />
            <mxPoint x="-240" y="850" as="targetPoint" />
            <Array as="points" />
          </mxGeometry>
        </mxCell>
        <mxCell id="Dd4lVPITV6rcG0dg7MI0-49" value="" style="pointerEvents=1;verticalLabelPosition=bottom;shadow=0;dashed=0;align=center;html=1;verticalAlign=top;shape=mxgraph.electrical.signal_sources.signal_ground;" vertex="1" parent="1">
          <mxGeometry x="-100" y="940" width="40" height="30" as="geometry" />
        </mxCell>
        <mxCell id="Dd4lVPITV6rcG0dg7MI0-50" value="" style="endArrow=classic;startArrow=classic;html=1;rounded=0;exitX=1;exitY=0.5;exitDx=0;exitDy=0;entryX=0.5;entryY=0;entryDx=0;entryDy=0;entryPerimeter=0;" edge="1" parent="1" source="Dd4lVPITV6rcG0dg7MI0-28" target="Dd4lVPITV6rcG0dg7MI0-49">
          <mxGeometry width="50" height="50" relative="1" as="geometry">
            <mxPoint x="60" y="730" as="sourcePoint" />
            <mxPoint x="110" y="680" as="targetPoint" />
            <Array as="points">
              <mxPoint x="-80" y="740" />
            </Array>
          </mxGeometry>
        </mxCell>
        <mxCell id="Dd4lVPITV6rcG0dg7MI0-51" value="" style="endArrow=classic;html=1;rounded=0;entryX=1;entryY=0.5;entryDx=0;entryDy=0;" edge="1" parent="1" target="Dd4lVPITV6rcG0dg7MI0-31">
          <mxGeometry width="50" height="50" relative="1" as="geometry">
            <mxPoint x="-80" y="920" as="sourcePoint" />
            <mxPoint x="-50" y="850" as="targetPoint" />
          </mxGeometry>
        </mxCell>
        <mxCell id="Dd4lVPITV6rcG0dg7MI0-52" value="" style="endArrow=classic;html=1;rounded=0;entryX=1;entryY=0.25;entryDx=0;entryDy=0;" edge="1" parent="1" target="Dd4lVPITV6rcG0dg7MI0-30">
          <mxGeometry width="50" height="50" relative="1" as="geometry">
            <mxPoint x="-80" y="850" as="sourcePoint" />
            <mxPoint x="-70" y="810" as="targetPoint" />
          </mxGeometry>
        </mxCell>
        <mxCell id="Dd4lVPITV6rcG0dg7MI0-54" value="" style="endArrow=classic;html=1;rounded=0;exitX=0.25;exitY=1;exitDx=0;exitDy=0;entryX=1;entryY=0.75;entryDx=0;entryDy=0;strokeColor=#FF0000;" edge="1" parent="1" source="Dd4lVPITV6rcG0dg7MI0-7" target="Dd4lVPITV6rcG0dg7MI0-30">
          <mxGeometry width="50" height="50" relative="1" as="geometry">
            <mxPoint x="-260" y="450" as="sourcePoint" />
            <mxPoint x="-210" y="400" as="targetPoint" />
            <Array as="points">
              <mxPoint x="276" y="320" />
              <mxPoint x="40" y="320" />
              <mxPoint x="40" y="870" />
            </Array>
          </mxGeometry>
        </mxCell>
        <mxCell id="Dd4lVPITV6rcG0dg7MI0-56" value="" style="endArrow=classic;html=1;rounded=0;entryX=1;entryY=0.75;entryDx=0;entryDy=0;strokeColor=#FF0000;" edge="1" parent="1">
          <mxGeometry width="50" height="50" relative="1" as="geometry">
            <mxPoint x="40" y="750" as="sourcePoint" />
            <mxPoint x="-160" y="750" as="targetPoint" />
          </mxGeometry>
        </mxCell>
        <mxCell id="Dd4lVPITV6rcG0dg7MI0-58" value="" style="endArrow=classic;html=1;rounded=0;entryX=1;entryY=0.25;entryDx=0;entryDy=0;exitX=0.083;exitY=0.769;exitDx=0;exitDy=0;exitPerimeter=0;strokeColor=#3333FF;" edge="1" parent="1" source="Dd4lVPITV6rcG0dg7MI0-11" target="Dd4lVPITV6rcG0dg7MI0-31">
          <mxGeometry width="50" height="50" relative="1" as="geometry">
            <mxPoint x="120" y="660" as="sourcePoint" />
            <mxPoint x="60" y="780" as="targetPoint" />
            <Array as="points">
              <mxPoint x="30" y="660" />
              <mxPoint x="30" y="910" />
            </Array>
          </mxGeometry>
        </mxCell>
        <mxCell id="Dd4lVPITV6rcG0dg7MI0-59" value="" style="endArrow=classic;html=1;rounded=0;exitX=1;exitY=0.75;exitDx=0;exitDy=0;entryX=0.031;entryY=0.676;entryDx=0;entryDy=0;entryPerimeter=0;strokeColor=#CCCC00;" edge="1" parent="1" source="Dd4lVPITV6rcG0dg7MI0-31" target="Dd4lVPITV6rcG0dg7MI0-11">
          <mxGeometry width="50" height="50" relative="1" as="geometry">
            <mxPoint x="10" y="830" as="sourcePoint" />
            <mxPoint x="60" y="780" as="targetPoint" />
            <Array as="points">
              <mxPoint y="930" />
              <mxPoint y="633" />
            </Array>
          </mxGeometry>
        </mxCell>
        <mxCell id="Dd4lVPITV6rcG0dg7MI0-60" value="" style="endArrow=classic;html=1;rounded=0;exitX=1;exitY=0.75;exitDx=0;exitDy=0;strokeColor=#CCCC00;entryX=0.016;entryY=0.634;entryDx=0;entryDy=0;entryPerimeter=0;" edge="1" parent="1" target="Dd4lVPITV6rcG0dg7MI0-11">
          <mxGeometry width="50" height="50" relative="1" as="geometry">
            <mxPoint x="-160" y="725" as="sourcePoint" />
            <mxPoint x="90" y="599" as="targetPoint" />
            <Array as="points">
              <mxPoint x="-10" y="725" />
              <mxPoint x="-10" y="620" />
            </Array>
          </mxGeometry>
        </mxCell>
        <mxCell id="Dd4lVPITV6rcG0dg7MI0-61" value="" style="endArrow=classic;html=1;rounded=0;exitX=1;exitY=0.25;exitDx=0;exitDy=0;entryX=0.009;entryY=0.599;entryDx=0;entryDy=0;entryPerimeter=0;strokeColor=#CCCC00;" edge="1" parent="1" source="Dd4lVPITV6rcG0dg7MI0-27" target="Dd4lVPITV6rcG0dg7MI0-11">
          <mxGeometry width="50" height="50" relative="1" as="geometry">
            <mxPoint x="-20" y="790" as="sourcePoint" />
            <mxPoint x="30" y="740" as="targetPoint" />
            <Array as="points">
              <mxPoint x="-40" y="670" />
              <mxPoint x="-40" y="610" />
            </Array>
          </mxGeometry>
        </mxCell>
        <mxCell id="Dd4lVPITV6rcG0dg7MI0-62" value="" style="endArrow=classic;html=1;rounded=0;exitX=1;exitY=0.25;exitDx=0;exitDy=0;entryX=0.002;entryY=0.566;entryDx=0;entryDy=0;entryPerimeter=0;strokeColor=#CCCC00;" edge="1" parent="1" source="Dd4lVPITV6rcG0dg7MI0-26" target="Dd4lVPITV6rcG0dg7MI0-11">
          <mxGeometry width="50" height="50" relative="1" as="geometry">
            <mxPoint x="-60" y="730" as="sourcePoint" />
            <mxPoint x="-10" y="680" as="targetPoint" />
            <Array as="points">
              <mxPoint x="-50" y="610" />
              <mxPoint x="-50" y="600" />
            </Array>
          </mxGeometry>
        </mxCell>
        <mxCell id="Dd4lVPITV6rcG0dg7MI0-63" value="" style="endArrow=classic;html=1;rounded=0;entryX=-0.001;entryY=0.527;entryDx=0;entryDy=0;entryPerimeter=0;exitX=1;exitY=0.75;exitDx=0;exitDy=0;strokeColor=#CCCC00;" edge="1" parent="1" source="Dd4lVPITV6rcG0dg7MI0-25" target="Dd4lVPITV6rcG0dg7MI0-11">
          <mxGeometry width="50" height="50" relative="1" as="geometry">
            <mxPoint x="-60" y="730" as="sourcePoint" />
            <mxPoint x="-10" y="680" as="targetPoint" />
            <Array as="points">
              <mxPoint x="-60" y="570" />
              <mxPoint x="-60" y="590" />
            </Array>
          </mxGeometry>
        </mxCell>
        <mxCell id="Dd4lVPITV6rcG0dg7MI0-64" value="" style="endArrow=classic;html=1;rounded=0;exitX=1;exitY=0.75;exitDx=0;exitDy=0;entryX=0.077;entryY=0.244;entryDx=0;entryDy=0;entryPerimeter=0;strokeColor=#CCCC00;" edge="1" parent="1" source="Dd4lVPITV6rcG0dg7MI0-24" target="Dd4lVPITV6rcG0dg7MI0-11">
          <mxGeometry width="50" height="50" relative="1" as="geometry">
            <mxPoint x="-60" y="620" as="sourcePoint" />
            <mxPoint x="-10" y="570" as="targetPoint" />
          </mxGeometry>
        </mxCell>
        <mxCell id="Dd4lVPITV6rcG0dg7MI0-65" value="" style="endArrow=classic;html=1;rounded=0;exitX=1;exitY=0.75;exitDx=0;exitDy=0;entryX=0.099;entryY=0.209;entryDx=0;entryDy=0;entryPerimeter=0;strokeColor=#CCCC00;" edge="1" parent="1" source="Dd4lVPITV6rcG0dg7MI0-23" target="Dd4lVPITV6rcG0dg7MI0-11">
          <mxGeometry width="50" height="50" relative="1" as="geometry">
            <mxPoint x="-60" y="570" as="sourcePoint" />
            <mxPoint x="-10" y="520" as="targetPoint" />
            <Array as="points">
              <mxPoint x="-110" y="455" />
              <mxPoint x="-110" y="500" />
            </Array>
          </mxGeometry>
        </mxCell>
        <mxCell id="Dd4lVPITV6rcG0dg7MI0-66" value="" style="endArrow=classic;html=1;rounded=0;exitX=1;exitY=0.5;exitDx=0;exitDy=0;entryX=0.099;entryY=0.209;entryDx=0;entryDy=0;entryPerimeter=0;strokeColor=#CCCC00;" edge="1" parent="1" source="Dd4lVPITV6rcG0dg7MI0-23">
          <mxGeometry width="50" height="50" relative="1" as="geometry">
            <mxPoint x="-150" y="440" as="sourcePoint" />
            <mxPoint x="146" y="490" as="targetPoint" />
            <Array as="points">
              <mxPoint x="-100" y="440" />
              <mxPoint x="-100" y="490" />
            </Array>
          </mxGeometry>
        </mxCell>
        <mxCell id="Dd4lVPITV6rcG0dg7MI0-67" value="" style="endArrow=classic;html=1;rounded=0;exitX=1;exitY=0.25;exitDx=0;exitDy=0;entryX=0;entryY=0;entryDx=0;entryDy=0;strokeColor=#CCCC00;" edge="1" parent="1" source="Dd4lVPITV6rcG0dg7MI0-23" target="Dd4lVPITV6rcG0dg7MI0-11">
          <mxGeometry width="50" height="50" relative="1" as="geometry">
            <mxPoint x="-140" y="430" as="sourcePoint" />
            <mxPoint x="156" y="480" as="targetPoint" />
            <Array as="points">
              <mxPoint x="-90" y="425" />
              <mxPoint x="-90" y="480" />
            </Array>
          </mxGeometry>
        </mxCell>
        <mxCell id="Dd4lVPITV6rcG0dg7MI0-68" value="" style="endArrow=classic;html=1;rounded=0;exitX=1;exitY=0.75;exitDx=0;exitDy=0;entryX=0.184;entryY=0.11;entryDx=0;entryDy=0;entryPerimeter=0;strokeColor=#CCCC00;" edge="1" parent="1" source="Dd4lVPITV6rcG0dg7MI0-22" target="Dd4lVPITV6rcG0dg7MI0-11">
          <mxGeometry width="50" height="50" relative="1" as="geometry">
            <mxPoint x="-60" y="520" as="sourcePoint" />
            <mxPoint x="-10" y="470" as="targetPoint" />
            <Array as="points">
              <mxPoint x="-80" y="390" />
              <mxPoint x="-80" y="470" />
            </Array>
          </mxGeometry>
        </mxCell>
        <mxCell id="Dd4lVPITV6rcG0dg7MI0-69" value="" style="endArrow=classic;html=1;rounded=0;exitX=1;exitY=0.75;exitDx=0;exitDy=0;entryX=0.222;entryY=0.084;entryDx=0;entryDy=0;entryPerimeter=0;strokeColor=#CCCC00;" edge="1" parent="1" source="Dd4lVPITV6rcG0dg7MI0-21" target="Dd4lVPITV6rcG0dg7MI0-11">
          <mxGeometry width="50" height="50" relative="1" as="geometry">
            <mxPoint x="-60" y="520" as="sourcePoint" />
            <mxPoint x="-10" y="470" as="targetPoint" />
            <Array as="points">
              <mxPoint x="-70" y="330" />
              <mxPoint x="-70" y="460" />
            </Array>
          </mxGeometry>
        </mxCell>
      </root>
    </mxGraphModel>
  </diagram>
</mxfile>
